<svg id="Capa_1" data-name="Capa 1" xmlns="http://www.w3.org/2000/svg" viewBox="0 0 46.15 25.23">
  <defs>
    <style>
      .cls-1 { fill: #003d73; }
      .cls-2 { fill: #0388c8; }
    </style>
  </defs>
  <path class="cls-2" d="M35.03,13.73h-7.37s-7.33-4.88-7.33-4.88h-6.04c-.41.81-1.28,1.21-2.16.98-.82-.21-1.41-.94-1.41-1.82s.58-1.6,1.42-1.82,1.71.18,2.16.99h19.85c-2.56-2.54-5.84-4.02-9.38-4.41-.48.82-1.33,1.12-2.21.89-.81-.21-1.34-1.02-1.32-1.85.02-.88.64-1.6,1.44-1.77.92-.2,1.72.23,2.16,1.07,4.64.44,8.91,2.74,11.86,6.36.22.27.22.67.06.95-.13.23-.44.44-.8.41l-12.51.03,4.73,3.2h6.83c.44-.79,1.24-1.2,2.1-1.02s1.45.91,1.49,1.76-.54,1.66-1.36,1.88c-.88.24-1.73-.09-2.21-.96Z"/>
  <path class="cls-1" d="M42.6,24.21h-16.83s-6.95-4.61-6.95-4.61h-8.95c-.55.98-1.71,1.27-2.61.75s-1.2-1.72-.64-2.71c.33-.57,1.07-.83,1.7-.8.71.04,1.27.43,1.61,1.1l9.45.02,6.92,4.58h16.28c.54-1.12,1.92-1.39,2.86-.68s.97,2.12.08,2.9-2.29.61-2.92-.56Z"/>
  <path class="cls-2" d="M36.24,18.96l-8.57-.02c-.33,0-.71.06-1-.12l-7.07-4.47H3.57c-.45.84-1.28,1.23-2.19,1C.59,15.13,0,14.41,0,13.52c0-.82.58-1.61,1.4-1.8.87-.19,1.71.13,2.16.96h16.53s7.31,4.61,7.31,4.61h8.88c.61-1.08,1.91-1.32,2.82-.61s.95,2.16.06,2.91-2.33.53-2.92-.64Z"/>
</svg>
